<?xml version="1.0" encoding="utf-8"?>
<!-- Generator: Adobe Illustrator 26.1.0, SVG Export Plug-In . SVG Version: 6.00 Build 0)  -->
<svg version="1.1" id="Layer_1" xmlns="http://www.w3.org/2000/svg" xmlns:xlink="http://www.w3.org/1999/xlink" x="0px" y="0px"
	 viewBox="0 0 841.89 595.28" style="enable-background:new 0 0 841.89 595.28;" xml:space="preserve">
<path d="M174.23,317.17l14.93-83.29c3.44-19.21-18.19-32.89-34.07-21.55L18.87,320.6c-13.79,9.85-6.82,31.58,10.12,31.58h96.29
	l-6.81,37.97h42.67l6.81-37.97h20.7l27.71-35.02H174.23z M83.27,317.17l57.64-52.19l-9.36,52.19H83.27z"/>
<path d="M495.35,320.63c5.1-28.46,30.64-36.89,50.37-36.89h71.23l27.71-35.02h-98.94c-56.5,0-89.25,41.97-93.85,67.64
	c-4.6,25.67,6.01,73.79,83.6,73.79h62.46l27.85-35.02h-90.31C506.54,355.14,491.87,340.02,495.35,320.63"/>
<polygon points="789.69,333.99 815.76,300.77 705.07,300.77 708.12,283.74 755.9,283.74 804.1,283.74 831.82,248.73 755.9,248.73 
	714.4,248.73 671.73,248.73 665.45,283.74 665.47,283.74 652.7,355.14 652.65,355.14 646.45,390.16 689.04,390.16 785.08,390.16 
	812.93,355.14 695.32,355.14 699.11,333.99 "/>
<path d="M245.87,283.74l32.07-35.02h106.69c37.73,0,58.7,21.27,53.43,50.65c-4.86,27.11-29.93,43-45.02,43l31.79,47.79h-52.98
	l-25.25-37.92h-68.37l-6.8,37.92h-44.61l13.07-72.99h122.74c24.96,0,28.58-12.13,29.61-17.17c1.02-4.94-0.81-16.25-21.42-16.25
	H245.87z"/>
</svg>
