<svg xmlns="http://www.w3.org/2000/svg" viewBox="0 0 560 160.02"><defs><style>.cls-1,.cls-2{fill:#fff;}.cls-1{fill-rule:evenodd;}</style></defs><title>BuildUp_logo_white_RGB</title><g id="Layer_2" data-name="Layer 2"><g id="Layer_1-2" data-name="Layer 1"><path class="cls-1" d="M36.07,0H16A16,16,0,0,0,0,16V32A32,32,0,0,0,32,64H64A32,32,0,0,1,96,96l.14-36A60.09,60.09,0,0,0,36.07,0Z"/><path class="cls-1" d="M20,80H16A16,16,0,0,0,0,96v32a32,32,0,0,0,32,32H64a16,16,0,0,0,16-16v-4A60,60,0,0,0,20,80Z"/><path class="cls-1" d="M96,128a32,32,0,0,0,32,32h16a16,16,0,0,0,16-16V32A32,32,0,0,0,128,0H36A60,60,0,0,1,96,60v68Z"/><path class="cls-2" d="M251.18,50q9.22,5.31,9.22,16a18.87,18.87,0,0,1-6.31,14.63,22.31,22.31,0,0,1-15.54,5.71H208.78V16.25h27.66a21.83,21.83,0,0,1,15.19,5.56A18.26,18.26,0,0,1,257.79,36,17.1,17.1,0,0,1,251.18,50ZM236.44,29.18H222.61V44.62h13.83a7.22,7.22,0,0,0,5.37-2.21A7.6,7.6,0,0,0,244,36.9a7.66,7.66,0,0,0-2.1-5.51A7.17,7.17,0,0,0,236.44,29.18Zm2.11,44.3a7.79,7.79,0,0,0,5.81-2.35,8.17,8.17,0,0,0,2.31-6,8,8,0,0,0-2.31-5.86A7.79,7.79,0,0,0,238.55,57H222.61V73.48Z"/><path class="cls-2" d="M303,36.3h12.93V86.41H303V80.8q-4.71,7-14.94,7a18.13,18.13,0,0,1-13.58-5.52q-5.36-5.51-5.36-15.23V36.3h12.93V65.47q0,5,2.71,7.66A9.81,9.81,0,0,0,292,75.79a10.65,10.65,0,0,0,8-3.11q3-3.11,3-9.32Z"/><path class="cls-2" d="M334.17,30.28a7.59,7.59,0,0,1-5.56-2.35,7.63,7.63,0,0,1-2.36-5.57,7.78,7.78,0,0,1,2.36-5.61,7.53,7.53,0,0,1,5.56-2.4,7.67,7.67,0,0,1,5.67,2.4,7.81,7.81,0,0,1,2.35,5.61,7.65,7.65,0,0,1-2.35,5.57A7.74,7.74,0,0,1,334.17,30.28Zm-6.41,56.13V36.3h12.93V86.41Z"/><path class="cls-2" d="M352.51,86.41V13.24h12.93V86.41Z"/><path class="cls-2" d="M415.26,16.25h12.93V86.41H415.26V80.5q-5.72,7.32-16.24,7.32a22.83,22.83,0,0,1-17.29-7.67,26.48,26.48,0,0,1-7.16-18.79,26.49,26.49,0,0,1,7.16-18.8A22.83,22.83,0,0,1,399,34.89q10.53,0,16.24,7.32Zm-23.8,55.28a13.5,13.5,0,0,0,10,4,13.34,13.34,0,0,0,9.92-4,13.85,13.85,0,0,0,3.91-10.17,13.86,13.86,0,0,0-3.91-10.18,13.34,13.34,0,0,0-9.92-4,13.5,13.5,0,0,0-10,4,13.74,13.74,0,0,0-4,10.18A13.73,13.73,0,0,0,391.46,71.53Z"/><path class="cls-2" d="M486,80.8q-7.21,6.83-18.85,6.82T448.34,80.8q-7.21-6.81-7.22-18.24V16.25h7V62.56q0,8.41,5,13.33t14,4.91q9,0,14-4.91t5-13.33V16.25h7V62.56Q493.24,74,486,80.8Z"/><path class="cls-2" d="M534.14,35.09a24.82,24.82,0,0,1,18.29,7.62A25.44,25.44,0,0,1,560,61.36,25.42,25.42,0,0,1,552.43,80a24.82,24.82,0,0,1-18.29,7.62q-13.33,0-20.25-11v29.87h-6.61V36.3h6.61v9.82Q520.81,35.1,534.14,35.09ZM519.61,75.44a20,20,0,0,0,28.06,0,19.24,19.24,0,0,0,5.71-14.08,19.26,19.26,0,0,0-5.71-14.09,20,20,0,0,0-28.06,0,19.27,19.27,0,0,0-5.72,14.09A19.24,19.24,0,0,0,519.61,75.44Z"/><path class="cls-2" d="M217.56,123.49a10,10,0,0,1,7.68,3.3,12.26,12.26,0,0,1,0,16.16,10,10,0,0,1-7.68,3.3h-8.78V123.49Zm0,20.61a7.83,7.83,0,0,0,6.12-2.66,10.21,10.21,0,0,0,0-13.13,7.84,7.84,0,0,0-6.12-2.67h-6.51V144.1Z"/><path class="cls-2" d="M271.19,123.49h2.28v22.76h-2.28Z"/><path class="cls-2" d="M339.42,135.42v1.17a9.51,9.51,0,0,1-3,7.14,11.18,11.18,0,0,1-8.09,2.91,11.54,11.54,0,0,1-8.55-3.41,11.78,11.78,0,0,1,8.55-20.13,11.28,11.28,0,0,1,5.78,1.53,10.65,10.65,0,0,1,4.06,4.07l-2,1.17a8.08,8.08,0,0,0-3.19-3.32,9,9,0,0,0-4.64-1.24,9.57,9.57,0,1,0,6.14,17.18,7.16,7.16,0,0,0,2.63-4.92h-9v-2.15Z"/><path class="cls-2" d="M382.33,123.49h2.28v22.76h-2.28Z"/><path class="cls-2" d="M443.12,123.49v2.15h-7v20.61h-2.28V125.64h-7v-2.15Z"/><path class="cls-2" d="M498.9,146.25l-2.11-5.59H486l-2.11,5.59h-2.4l8.74-22.76h2.34l8.75,22.76Zm-12.1-7.74H496l-4.59-12.16Z"/><path class="cls-2" d="M545.51,144.1h10.41v2.15H543.24V123.49h2.27Z"/></g></g></svg>