<svg width="372" height="151" viewBox="0 0 372 151" fill="none" xmlns="http://www.w3.org/2000/svg">
<path opacity="0.5" d="M127.514 134.472C127.514 134.472 130.646 138.432 136.298 138.432C141.662 138.432 144.794 134.976 144.794 130.908C144.794 122.52 132.77 123.384 132.77 119.028C132.77 117.408 134.354 116.292 136.514 116.292C138.206 116.292 139.898 117.084 139.898 118.272V119.424H144.146V117.048C144.146 113.412 139.538 112.008 136.55 112.008C131.618 112.008 128.018 115.068 128.018 119.208C128.018 127.164 140.042 126.804 140.042 131.16C140.042 133.14 138.314 134.184 136.37 134.184C132.806 134.184 130.178 131.16 130.178 131.16L127.514 134.472ZM169.592 138H174.308V126.84L180.356 117.3C180.824 116.58 181.04 116.436 181.832 116.436H182.66V112.44H180.248C178.592 112.44 177.836 112.692 176.9 114.312L173.552 119.928C172.652 121.44 172.004 122.808 172.004 122.808H171.932C171.932 122.808 171.284 121.404 170.384 119.928L167 114.312C166.028 112.692 165.308 112.44 163.652 112.44H161.24V116.436H162.068C162.86 116.436 163.076 116.58 163.544 117.3L169.592 126.84V138ZM198.94 134.472C198.94 134.472 202.072 138.432 207.724 138.432C213.088 138.432 216.22 134.976 216.22 130.908C216.22 122.52 204.196 123.384 204.196 119.028C204.196 117.408 205.78 116.292 207.94 116.292C209.632 116.292 211.324 117.084 211.324 118.272V119.424H215.572V117.048C215.572 113.412 210.964 112.008 207.976 112.008C203.044 112.008 199.444 115.068 199.444 119.208C199.444 127.164 211.468 126.804 211.468 131.16C211.468 133.14 209.74 134.184 207.796 134.184C204.232 134.184 201.604 131.16 201.604 131.16L198.94 134.472ZM241.702 138H246.418V116.436H250.342C250.846 116.436 251.134 116.724 251.134 117.228V118.776H255.274V114.744C255.274 113.052 254.698 112.44 252.97 112.44H235.15C233.422 112.44 232.846 113.052 232.846 114.744V118.776H236.986V117.228C236.986 116.724 237.274 116.436 237.778 116.436H241.702V138ZM274.149 135.552C274.149 137.28 274.869 138 276.597 138H288.189C289.881 138 290.637 137.28 290.637 135.552V131.664H286.353V133.212C286.353 133.716 286.065 134.004 285.561 134.004H279.657C279.153 134.004 278.865 133.716 278.865 133.212V127.128H287.145V123.132H278.865V116.436H284.625C285.129 116.436 285.417 116.724 285.417 117.228V118.776H289.701V114.888C289.701 113.196 288.945 112.44 287.253 112.44H271.809V116.436H274.149V135.552ZM306.806 138H310.874C312.566 138 313.178 137.28 313.322 135.552L314.15 124.176C314.294 122.484 314.186 120.18 314.186 120.18H314.258C314.258 120.18 315.014 122.736 315.662 124.176L319.91 133.608H323.726L327.974 124.176C328.622 122.736 329.378 120.216 329.378 120.216H329.45C329.45 120.216 329.342 122.484 329.486 124.176L330.35 135.552C330.494 137.28 331.07 138 332.762 138H336.83V134.004H335.714C335.21 134.004 334.958 133.716 334.922 133.212L333.266 112.44H328.37L323.114 124.608C322.502 126.084 321.854 128.028 321.854 128.028H321.782C321.782 128.028 321.134 126.084 320.522 124.608L315.266 112.44H310.37L308.714 133.212C308.678 133.716 308.426 134.004 307.922 134.004H306.806V138ZM353.394 134.472C353.394 134.472 356.526 138.432 362.178 138.432C367.542 138.432 370.674 134.976 370.674 130.908C370.674 122.52 358.65 123.384 358.65 119.028C358.65 117.408 360.234 116.292 362.394 116.292C364.086 116.292 365.778 117.084 365.778 118.272V119.424H370.026V117.048C370.026 113.412 365.418 112.008 362.43 112.008C357.498 112.008 353.898 115.068 353.898 119.208C353.898 127.164 365.922 126.804 365.922 131.16C365.922 133.14 364.194 134.184 362.25 134.184C358.686 134.184 356.058 131.16 356.058 131.16L353.394 134.472Z" fill="white"/>
<path d="M0 42.3607H6.21613V34.921H0V42.3607ZM0.175102 96.4513H6.12858V52.4261H0.175102V96.4513Z" fill="white"/>
<path d="M25.777 96.4513H31.7304V75.3577C31.7304 73.2571 31.9055 71.244 32.4308 69.406C34.4445 62.1414 40.9233 56.9774 48.4527 56.9774C56.9452 56.9774 57.9958 63.1042 57.9958 70.0187V96.4513H63.9492V68.4432C63.9492 57.5901 60.097 51.3758 49.2407 51.3758C38.8221 51.3758 33.2188 58.4653 31.6429 62.4915H31.4678C31.4678 62.4915 31.6429 60.916 31.6429 58.9905V52.4261H25.777V96.4513Z" fill="white"/>
<path d="M120.966 74.2199C120.966 87.5238 131.385 97.5016 144.255 97.5016C157.125 97.5016 167.544 87.5238 167.544 74.2199C167.544 61.1786 157.125 51.3758 144.255 51.3758C131.385 51.3758 120.966 61.1786 120.966 74.2199ZM127.095 74.2199C127.095 64.242 134.8 56.8024 144.255 56.8024C153.711 56.8024 161.415 64.242 161.415 74.2199C161.415 84.4604 153.711 92.1626 144.255 92.1626C134.8 92.1626 127.095 84.4604 127.095 74.2199Z" fill="white"/>
<path d="M183.922 96.4513H189.875V77.896C189.875 75.0952 190.226 72.1193 191.101 69.3185C193.027 62.8416 197.667 57.9402 203.883 57.9402C205.022 57.9402 206.072 58.1152 206.072 58.1152V52.251C206.072 52.251 204.934 51.9885 203.708 51.9885C196.792 51.9885 191.889 57.0649 189.788 63.7169H189.613C189.613 63.7169 189.788 62.1414 189.788 60.2158V52.4261H183.922V96.4513Z" fill="white"/>
<path d="M220.382 96.4513H226.336V75.6203C226.336 73.6072 226.511 71.5941 226.948 69.7561C228.787 63.0167 234.215 56.8024 241.394 56.8024C249.712 56.8024 250.675 63.2792 250.675 69.9312V96.4513H256.628V75.6203C256.628 73.2571 256.803 71.1565 257.416 69.231C259.08 62.7541 264.595 56.8024 271.337 56.8024C279.392 56.8024 280.88 62.7541 280.88 69.9312V96.4513H286.833V68.4432C286.833 57.5901 282.894 51.3758 272.212 51.3758C264.771 51.3758 258.379 56.4523 256.015 62.404H255.84C254.527 55.1394 250.325 51.3758 242.182 51.3758C235.353 51.3758 228.349 56.5398 226.248 62.4915H226.073C226.073 62.4915 226.248 60.916 226.248 58.9905V52.4261H220.382V96.4513Z" fill="white"/>
<path d="M302.244 84.4604C302.244 93.2129 309.861 97.5016 317.215 97.5016C328.246 97.5016 331.924 87.9614 331.924 87.9614H332.099C332.099 87.9614 331.924 89.4493 331.924 91.6374V96.4513H337.614V68.2682C337.614 57.24 331.748 51.3758 321.155 51.3758C311.262 51.3758 305.483 56.3647 305.483 56.3647L308.285 60.916C308.285 60.916 313.45 56.7148 320.717 56.7148C327.021 56.7148 331.661 59.6032 331.661 68.0931V69.231H329.209C321.593 69.231 302.244 69.5811 302.244 84.4604ZM308.372 84.1103C308.372 74.3949 322.205 74.1324 329.122 74.1324H331.661V76.0579C331.661 83.6726 326.583 92.4252 318.178 92.4252C311.612 92.4252 308.372 88.224 308.372 84.1103Z" fill="white"/>
<path d="M356.134 86.0358C356.134 95.6636 362.613 96.8014 366.29 96.8014C367.428 96.8014 368.479 96.6264 368.479 96.6264V91.2873C368.479 91.2873 367.778 91.3749 366.991 91.3749C364.714 91.3749 362.088 90.4996 362.088 84.7229V34.921H356.134V86.0358Z" fill="white"/>
<path fill-rule="evenodd" clip-rule="evenodd" d="M113.664 11.6626C118.004 9.35967 122.109 8.23865 125.992 8.23865C129.92 8.23865 133.049 9.15363 135.461 10.9005L135.482 10.9147C137.863 12.557 138.973 14.6066 138.973 17.1233C138.973 19.2837 138.396 21.1005 137.272 22.625L137.251 22.6563C136.206 24.1829 135.094 24.779 133.912 24.779C133.194 24.779 132.737 24.5177 132.394 23.9575C131.881 23.0117 131.131 21.3409 130.139 18.9062C129.29 16.7368 128.221 14.9974 126.895 13.7617C125.585 12.3597 123.887 11.6698 121.895 11.6698C118.507 11.6698 115.704 13.5518 113.479 16.9377L113.467 16.9562C111.384 20.2716 109.347 25.3951 107.337 32.2495C106.24 35.9968 105.368 39.4787 104.724 42.6942C104.544 43.4165 104.406 44.0033 104.312 44.4498C104.226 44.8571 104.152 45.2563 104.152 45.5266V45.7997C104.152 46.5464 104.403 47.2745 105.044 47.7784C105.636 48.2432 106.398 48.3855 107.148 48.3855C108.815 48.3855 111.2 48.2934 114.291 48.1117L120.817 47.9786L120.868 48.0803L120.993 48.2046C120.997 48.2088 121.017 48.2288 121.038 48.2931C121.061 48.3626 121.085 48.4813 121.085 48.6673C121.085 49.0254 120.821 49.7812 119.921 51.0416L119.906 51.0631L119.891 51.0854C119.515 51.6713 119.187 52.0481 118.919 52.2687C118.654 52.4873 118.514 52.4992 118.482 52.4992L106.998 52.7726C105.469 52.7739 104.139 53.0077 103.159 53.6201L103.131 53.6378L103.104 53.6572C102.209 54.2968 101.644 55.2692 101.326 56.4278C95.5787 75.9335 94.3511 81.9671 90.5574 100.613C90.378 101.495 90.1929 102.405 90.0013 103.346L89.9962 103.371L89.9922 103.396C89.4791 106.707 88.0411 110.695 86.3861 114.468C84.7383 118.226 82.9069 121.701 81.6514 123.97C79.1601 128.472 76.4976 132.074 73.675 134.802L73.662 134.815C70.8992 137.577 68.2194 139.589 65.6263 140.885C63.4685 141.963 61.7542 142.712 60.4646 143.153L59.8877 141.744C60.9721 141.067 62.1732 140.096 63.485 138.862C65.2338 137.317 66.8971 135.239 68.4853 132.661C70.1891 130.053 71.726 126.873 73.1044 123.136C74.5702 119.517 77.5585 110.915 78.3627 105.93L88.9419 57.0038C89.0692 56.59 89.1139 56.1189 89.1139 55.6315C89.1139 54.8607 88.7989 54.1588 88.1192 53.7056C87.517 53.3042 86.7508 53.1821 85.9818 53.1821L77.78 53.3188C77.2189 53.3177 76.9538 53.2121 76.8377 53.136C76.7693 53.0017 76.6875 52.7279 76.6875 52.2177C76.6875 51.6166 76.9231 50.9393 77.5387 50.1683C78.2017 49.3597 78.8964 48.9961 79.6355 48.9296L88.5187 48.5196L88.5476 48.5167C90.1324 48.3582 90.9881 47.0644 91.3961 45.5424L92.4843 41.7339C94.8244 33.9056 97.8691 27.5236 101.595 22.5548C105.442 17.4555 109.468 13.8481 113.657 11.6665L113.664 11.6626Z" fill="white"/>
</svg>
