<svg xmlns="http://www.w3.org/2000/svg" width="154" height="24" viewBox="0 0 154 24">
  <path fill="#FFF" fill-rule="evenodd" d="M61.5404,8.70017 C60.5142,8.65121 59.9113,8.86817 59.1116,9.59873 C58.3705,10.2803 58.0153,11.1098 58.0153,11.1098 L62.824,11.1491 C62.824,11.1491 63.16,8.70017 61.5404,8.70017 L61.5404,8.70017 L61.5404,8.70017 Z M45.2559,9.28768 C44.2297,9.30688 43.4396,10.4723 42.8367,12.6352 C42.3529,14.3728 41.7798,16.1306 43.0441,16.289 C44.0511,16.407 44.9007,15.8147 45.7206,13.0202 C46.263,11.1539 46.9638,9.25792 45.2559,9.28768 L45.2559,9.28768 L45.2559,9.28768 Z M76.046,10.6355 C75.2915,11.5965 74.99,12.5574 74.6387,13.8131 C74.2854,15.0707 73.0297,19.6153 73.0297,19.6153 L66.1926,19.5789 L67.7948,14.2489 L57.0179,14.2489 C56.7712,15.5526 57.0966,16.6288 59.438,16.6681 C60.7609,16.6989 61.6595,15.7206 61.6595,15.7206 L66.3596,15.6611 C66.3596,15.6611 65.7769,19.8784 57.7782,19.8784 C54.1993,19.8784 52.2006,18.3664 51.5161,16.3283 C51.5161,16.3283 51.4076,16.0134 51.3155,15.5334 C51.1609,15.8915 51.086,16.0499 51.086,16.0499 C50.1635,17.9027 49.3446,18.6256 48.11,19.2803 C46.4502,20.1693 43.696,19.9129 43.1929,19.7248 C42.6985,19.5472 41.8883,18.9549 41.6416,18.6985 C41.3958,18.4413 41.296,18.0361 41.296,18.0361 L39.638,24.0006 L32.9228,24.0006 L38.1865,6.01983 L44.703,6.01983 L44.3574,7.55007 C44.4265,7.32255 45.1772,5.40735 49.5606,5.68383 C52.1411,5.84799 53.0502,7.17663 53.1232,8.94591 C53.1232,8.94591 53.1107,9.27231 53.0512,9.78783 C53.3622,9.36543 53.5888,9.09951 53.5888,9.09951 C55.4934,7.00095 58.4761,5.44575 62.2806,5.49087 C66.9712,5.55039 68.5216,7.26879 68.8864,8.98623 C68.8864,8.98623 68.9737,9.39327 69.0678,10.0173 L70.3158,5.86719 L76.6988,5.94111 L76.096,7.90047 C76.096,7.90047 77.102,6.68031 78.158,6.20031 C79.2121,5.72031 79.816,5.54943 80.7702,5.49855 C81.7254,5.44767 81.9779,5.64543 81.9779,5.64543 L81.5564,7.02399 L80.6204,10.0806 C80.6204,10.0806 76.8006,9.67455 76.046,10.6355 L76.046,10.6355 L76.046,10.6355 Z M34.551,14.8787 C33.8905,16.793 32.3631,19.9562 24.9759,20.0166 C17.5887,20.0762 18.5794,15.6995 18.5794,15.6995 L18.591,15.6602 C18.2694,16.1987 17.941,16.5818 17.941,16.5818 C16.6402,18.1802 13.9638,19.84 8.30649,20.0358 C-1.88008,20.3882 0.168565,13.9197 0.168565,13.9197 L8.35929,13.9197 L7.98585,14.6646 C7.98585,14.6646 7.12953,16.4291 9.21177,16.4291 C11.295,16.4291 11.5052,14.6253 11.4524,13.6451 C11.3986,12.6659 5.26617,11.7242 3.98649,9.48928 C2.7068,7.25536 5.15961,3.4912 5.53305,3.09952 C5.90553,2.70688 7.44633,-0.076162 15.5046,0.001598 C23.5628,0.080318 21.349,5.99968 21.349,5.99968 L21.3442,5.99968 L14.0118,5.99968 C14.0118,5.99968 14.2786,5.13856 14.3314,4.86304 C14.3852,4.58944 14.5455,3.80416 13.1055,3.80416 C11.6655,3.80416 10.9186,4.78528 11.0252,5.68672 C11.1318,6.58816 10.9186,6.90208 15.5583,8.35264 C18.2502,9.19456 19.1257,10.5242 19.3474,11.6762 C19.3474,11.6762 19.4425,12.0774 19.4463,12.6554 L21.3442,5.99968 L27.8655,6.06016 L25.3474,14.6656 C25.3474,14.6656 24.3164,16.672 26.0492,16.793 C27.783,16.9158 28.0719,14.848 28.0719,14.848 L30.6303,6.0304 L37.1929,6.0304 C37.1929,6.0304 35.2114,12.9626 34.551,14.8787 L34.551,14.8787 L34.551,14.8787 Z M123.541,13.1603 C122.721,15.9587 122.021,16.8246 120.901,16.6653 C119.638,16.4838 120.276,14.5629 120.758,12.8301 C121.361,10.6634 122.051,8.72321 123.308,8.74145 C125.058,8.76545 124.088,11.295 123.541,13.1603 L123.541,13.1603 L123.541,13.1603 Z M107.702,12.952 C106.882,15.7514 106.032,16.3466 105.029,16.2237 C103.76,16.0682 104.337,14.3056 104.82,12.5738 C105.423,10.4061 106.212,9.23968 107.236,9.22048 C108.951,9.18976 108.25,11.0867 107.702,12.952 L107.702,12.952 L107.702,12.952 Z M98.2954,12.3472 C98.2896,11.081 97.6752,9.36353 94.4396,8.35265 C89.7999,6.90209 90.013,6.58817 89.9065,5.68673 C89.7999,4.78529 90.5468,3.80417 91.9868,3.80417 C93.4258,3.80417 93.2655,4.58945 93.2127,4.86305 C93.159,5.13857 92.8921,5.99969 92.8921,5.99969 L100.153,5.99969 L98.2954,12.3472 L98.2954,12.3472 Z M148.7,10.335 L151.909,10.335 L153.328,6.02656 L150.001,5.98912 L151.153,2.04544 L144.486,2.08192 L143.421,5.62144 C143.234,5.57056 142.91,5.50816 142.426,5.50336 C140.576,5.48608 138.646,6.87136 137.762,7.94272 L138.364,5.98912 L131.999,5.9152 L130.766,10.0125 C130.62,7.1728 128.196,5.6512 125.123,5.41984 C122.848,5.24992 119.673,5.71264 117.868,6.91072 C116.939,7.39552 115.881,8.63296 115.039,10.2054 C115.389,7.79872 114.732,5.82208 111.545,5.62048 C106.884,5.32576 106.332,7.50016 106.332,7.50016 L106.683,5.95264 L100.248,5.95264 C100.435,5.39392 102.022,0.0764786 94.3858,0.00159864 C86.3276,-0.0761614 84.7868,2.70688 84.4134,3.09952 C84.0399,3.4912 81.5871,7.25536 82.8678,9.48928 C84.1474,11.7242 90.2799,12.6659 90.3337,13.6451 C90.3865,14.6253 90.1762,16.4291 88.093,16.4291 C86.0108,16.4291 86.8671,14.6646 86.8671,14.6646 L87.2406,13.9197 L79.0498,13.9197 C79.0498,13.9197 77.0012,20.3882 87.1868,20.0358 C93.4758,19.8179 96.0835,17.7914 97.2105,16.0518 L94.9023,23.9373 L101.62,23.9373 L103.274,17.967 C103.274,17.967 103.375,18.3722 103.625,18.6304 C103.876,18.8877 104.678,19.4781 105.18,19.6624 C105.681,19.8467 108.438,20.105 110.092,19.2198 C111.539,18.4461 112.41,17.6166 113.546,14.9536 C113.521,15.2349 113.506,15.5152 113.506,15.7926 C113.506,19.5155 117.115,19.8832 120.775,19.8832 C123.576,19.8832 126.908,19.2352 129.036,15.7725 L127.887,19.5885 L134.705,19.6259 C134.705,19.6259 135.959,15.0928 136.309,13.84 C136.66,12.5862 136.961,11.6282 137.713,10.6691 C138.399,9.79456 141.635,10.0576 142.192,10.1094 L141.178,13.5818 C141.178,13.5818 140.024,16.5664 140.075,18.2243 C140.124,19.8832 143.985,19.8102 144.486,19.8102 C144.988,19.8102 149.439,19.6259 149.439,19.6259 L150.342,16.2717 C150.342,16.2717 149.891,16.3821 149.64,16.4195 C149.389,16.456 147.844,16.4195 147.493,16.3456 C147.142,16.2717 147.193,15.424 147.193,15.424 L148.7,10.335 L148.7,10.335 Z"/>
</svg>
