<svg xmlns="http://www.w3.org/2000/svg" xmlns:xlink="http://www.w3.org/1999/xlink" width="512" zoomAndPan="magnify" viewBox="0 0 384 383.999986" height="512" preserveAspectRatio="xMidYMid meet" version="1.0"><defs><g/><clipPath id="53dc83db44"><path d="M 232.5 155.527344 L 353.691406 155.527344 L 353.691406 228.738281 L 232.5 228.738281 Z M 232.5 155.527344 " clip-rule="nonzero"/></clipPath><clipPath id="e10c121440"><path d="M 20.699219 160.171875 L 360.449219 160.171875 L 360.449219 223.921875 L 20.699219 223.921875 Z M 20.699219 160.171875 " clip-rule="nonzero"/></clipPath></defs><g clip-path="url(#53dc83db44)"><path fill="#348ddb" d="M 232.5 155.527344 L 353.101562 155.527344 L 353.101562 229.328125 L 232.5 229.328125 Z M 232.5 155.527344 " fill-opacity="1" fill-rule="nonzero"/></g><g clip-path="url(#e10c121440)"><path stroke-linecap="butt" transform="matrix(0.750414, 0, 0, 0.747938, 20.700972, 160.170398)" fill="none" stroke-linejoin="miter" d="M -0.00233675 0.00197514 L 452.747723 0.00197514 L 452.747723 85.23635 L -0.00233675 85.23635 L -0.00233675 0.00197514 " stroke="#222222" stroke-width="6" stroke-opacity="1" stroke-miterlimit="4"/></g><g fill="#222222" fill-opacity="1"><g transform="translate(25.123067, 213.128678)"><g><path d="M 14.808594 0 L 27.15625 0 L 27.15625 -31.519531 L 40.242188 -31.519531 L 40.242188 -43.007812 L 1.71875 -43.007812 L 1.71875 -31.519531 L 14.808594 -31.519531 Z M 14.808594 0 "/></g></g></g><g fill="#222222" fill-opacity="1"><g transform="translate(66.779347, 213.128678)"><g><path d="M 4.546875 0 L 16.957031 0 L 16.957031 -12.226562 L 21.625 -12.226562 L 27.769531 0 L 41.839844 0 L 33.914062 -14.5 C 38.460938 -17.019531 41.042969 -21.566406 41.042969 -27.585938 C 41.042969 -37.109375 34.589844 -43.007812 24.144531 -43.007812 L 4.546875 -43.007812 Z M 16.710938 -22.117188 L 16.710938 -32.871094 L 22.488281 -32.871094 C 26.417969 -32.871094 28.570312 -30.964844 28.570312 -27.523438 C 28.570312 -24.085938 26.417969 -22.117188 22.488281 -22.117188 Z M 16.710938 -22.117188 "/></g></g></g><g fill="#222222" fill-opacity="1"><g transform="translate(110.708901, 213.128678)"><g><path d="M 4.546875 0 L 34.714844 0 L 34.714844 -10.136719 L 16.835938 -10.136719 L 16.835938 -16.773438 L 32.378906 -16.773438 L 32.378906 -26.726562 L 16.835938 -26.726562 L 16.835938 -32.992188 L 34.039062 -32.992188 L 34.039062 -43.007812 L 4.546875 -43.007812 Z M 4.546875 0 "/></g></g></g><g fill="#222222" fill-opacity="1"><g transform="translate(147.880058, 213.128678)"><g><path d="M 4.546875 0 L 16.835938 0 L 16.835938 -21.933594 L 33.175781 0 L 43.253906 0 L 43.253906 -43.007812 L 31.027344 -43.007812 L 31.027344 -21.195312 L 14.683594 -43.007812 L 4.546875 -43.007812 Z M 4.546875 0 "/></g></g></g><g fill="#222222" fill-opacity="1"><g transform="translate(195.434577, 213.128678)"><g><path d="M 4.546875 0 L 34.714844 0 L 34.714844 -10.136719 L 16.835938 -10.136719 L 16.835938 -16.773438 L 32.378906 -16.773438 L 32.378906 -26.726562 L 16.835938 -26.726562 L 16.835938 -32.992188 L 34.039062 -32.992188 L 34.039062 -43.007812 L 4.546875 -43.007812 Z M 4.546875 0 "/></g></g></g><g fill="#ffffff" fill-opacity="1"><g transform="translate(232.603055, 213.128678)"><g><path d="M 4.546875 0 L 16.957031 0 L 16.957031 -12.226562 L 21.625 -12.226562 L 27.769531 0 L 41.839844 0 L 33.914062 -14.5 C 38.460938 -17.019531 41.042969 -21.566406 41.042969 -27.585938 C 41.042969 -37.109375 34.589844 -43.007812 24.144531 -43.007812 L 4.546875 -43.007812 Z M 16.710938 -22.117188 L 16.710938 -32.871094 L 22.488281 -32.871094 C 26.417969 -32.871094 28.570312 -30.964844 28.570312 -27.523438 C 28.570312 -24.085938 26.417969 -22.117188 22.488281 -22.117188 Z M 16.710938 -22.117188 "/></g></g></g><g fill="#ffffff" fill-opacity="1"><g transform="translate(276.532608, 213.128678)"><g><path d="M 0.308594 0 L 13.457031 0 L 15.789062 -6.082031 L 30.472656 -6.082031 L 32.808594 0 L 46.019531 0 L 29.308594 -43.007812 L 17.019531 -43.007812 Z M 18.371094 -15.175781 L 23.164062 -28.507812 L 27.957031 -15.175781 Z M 18.371094 -15.175781 "/></g></g></g><g fill="#ffffff" fill-opacity="1"><g transform="translate(322.551122, 213.128678)"><g><path d="M 1.964844 0 L 9.523438 0 C 20.644531 0 26.789062 -5.714844 26.789062 -16.589844 L 26.789062 -43.007812 L 14.378906 -43.007812 L 14.378906 -17.570312 C 14.378906 -13.269531 12.59375 -11.488281 8.480469 -11.488281 L 1.964844 -11.488281 Z M 1.964844 0 "/></g></g></g></svg>